<svg width="310" height="51" viewBox="0 0 310 51" fill="none" xmlns="http://www.w3.org/2000/svg">
<rect width="310" height="51" fill="#E5E5E5"/>
<g clip-path="url(#clip0)">
<rect width="310" height="51" fill="white"/>
<g filter="url(#filter0_d)">
<path d="M28.452 19.084C30.564 18.5267 32.4047 18.248 33.974 18.248C37.3327 18.248 39.012 19.414 39.012 21.746C39.012 23.1687 38.3447 24.254 37.01 25.002C37.9047 25.222 38.6453 25.6473 39.232 26.278C39.8187 26.894 40.112 27.6713 40.112 28.61C40.112 30.37 39.4593 31.734 38.154 32.702C36.8487 33.6553 35.2353 34.132 33.314 34.132C31.3927 34.132 29.728 33.7507 28.32 32.988C28.7747 31.404 29.002 29.27 29.002 26.586C29.002 23.8873 28.8187 21.3867 28.452 19.084ZM31.774 31.756C32.4193 31.9613 33.0647 32.064 33.71 32.064C34.722 32.064 35.558 31.8147 36.218 31.316C36.878 30.8027 37.208 30.084 37.208 29.16C37.208 27.4 36.2547 26.52 34.348 26.52C33.4387 26.52 32.5147 26.7107 31.576 27.092C31.576 28.5733 31.642 30.128 31.774 31.756ZM31.554 25.156C31.7593 25.112 32.06 25.0607 32.456 25.002C32.8667 24.9433 33.182 24.892 33.402 24.848C33.622 24.804 33.8933 24.738 34.216 24.65C34.5533 24.562 34.81 24.4593 34.986 24.342C35.1767 24.21 35.3673 24.0487 35.558 23.858C35.9247 23.4913 36.108 22.956 36.108 22.252C36.108 20.888 35.294 20.206 33.666 20.206C33.138 20.206 32.4927 20.294 31.73 20.47C31.6127 23.4767 31.554 25.0387 31.554 25.156ZM49.2803 26.52C49.9403 27.9133 50.7763 29.1307 51.7883 30.172C52.8003 31.2133 53.805 31.888 54.8023 32.196C54.8023 32.812 54.641 33.2887 54.3183 33.626C53.9957 33.9633 53.5337 34.132 52.9323 34.132C52.155 34.132 51.2677 33.6333 50.2703 32.636C49.273 31.624 48.4003 30.436 47.6523 29.072C46.919 27.6933 46.4863 26.4833 46.3543 25.442C47.4103 25.442 48.2757 25.1633 48.9503 24.606C49.6397 24.034 49.9843 23.2273 49.9843 22.186C49.9843 20.866 49.163 20.206 47.5203 20.206C46.9923 20.206 46.347 20.294 45.5843 20.47C45.4817 22.45 45.4303 24.0487 45.4303 25.266C45.4303 29.1673 45.5843 31.9907 45.8923 33.736C45.423 33.912 44.9243 34 44.3963 34C43.8683 34 43.4063 33.8313 43.0103 33.494C42.629 33.1567 42.4383 32.7093 42.4383 32.152C42.4383 31.5947 42.5117 30.6267 42.6583 29.248C42.805 27.8547 42.8783 26.74 42.8783 25.904C42.8783 23.3373 42.695 21.0567 42.3283 19.062C44.3083 18.5193 46.193 18.248 47.9823 18.248C51.253 18.248 52.8883 19.414 52.8883 21.746C52.8883 22.7727 52.5363 23.7407 51.8323 24.65C51.143 25.5447 50.2923 26.168 49.2803 26.52ZM59.9436 18.556C60.5596 18.3507 61.117 18.248 61.6156 18.248C62.3783 18.248 62.9723 18.5193 63.3976 19.062C63.823 19.59 64.153 20.3453 64.3876 21.328C64.461 21.6213 64.6076 22.2667 64.8276 23.264C65.0623 24.2613 65.253 25.068 65.3996 25.684C65.8543 27.6053 66.265 29.094 66.6316 30.15C67.013 31.206 67.6143 32.0493 68.4356 32.68C68.2596 33.12 67.9663 33.472 67.5556 33.736C67.1596 34 66.727 34.132 66.2576 34.132C65.187 34.132 64.4023 33.3253 63.9036 31.712C63.669 30.964 63.4563 30.2307 63.2656 29.512C62.7523 29.688 62.1143 29.776 61.3516 29.776C60.6036 29.776 59.6796 29.6953 58.5796 29.534C58.125 31.3087 57.8976 32.6433 57.8976 33.538C57.8976 33.7287 57.905 33.868 57.9196 33.956C57.729 33.9853 57.4063 34 56.9516 34C56.497 34 56.0936 33.8607 55.7416 33.582C55.4043 33.2887 55.2356 32.878 55.2356 32.35C55.2356 31.6167 55.9396 29.468 57.3476 25.904C58.7556 22.34 59.621 19.8907 59.9436 18.556ZM59.0856 27.686C59.6723 27.7593 60.2663 27.796 60.8676 27.796C61.4836 27.796 62.1363 27.73 62.8256 27.598C62.6936 26.9967 62.2463 24.694 61.4836 20.69C60.5743 23.0513 59.775 25.3833 59.0856 27.686ZM78.9788 18.6C79.4481 18.3653 79.9394 18.248 80.4528 18.248C80.9808 18.248 81.4061 18.4093 81.7288 18.732C82.0661 19.0547 82.2348 19.4433 82.2348 19.898C82.2348 20.3527 82.1688 21.3573 82.0368 22.912C81.9048 24.452 81.8388 25.6767 81.8388 26.586C81.8388 29.5047 81.9708 31.932 82.2348 33.868C81.7654 34.044 81.2374 34.132 80.6508 34.132C80.0788 34.132 79.6314 34.0367 79.3088 33.846C78.3701 33.3033 76.1774 29.8713 72.7308 23.55C72.6721 24.122 72.6428 25.464 72.6428 27.576C72.6428 29.6733 72.8041 31.7267 73.1268 33.736C72.6721 33.912 72.1808 34 71.6528 34C71.1248 34 70.6921 33.8313 70.3548 33.494C70.0321 33.1567 69.8708 32.7533 69.8708 32.284C69.8708 31.8147 69.9368 30.832 70.0688 29.336C70.2154 27.84 70.2888 26.7107 70.2888 25.948C70.2888 23.0293 70.1494 20.6093 69.8708 18.688C70.2814 18.4827 70.8828 18.38 71.6748 18.38C72.4668 18.38 73.0241 18.6953 73.3468 19.326C75.5174 23.7407 77.5928 27.4807 79.5728 30.546C79.5288 27.73 79.5068 26.2413 79.5068 26.08C79.5068 23.3373 79.3308 20.844 78.9788 18.6ZM84.5231 33.01C84.9778 30.8247 85.2051 28.5587 85.2051 26.212C85.2051 23.8653 85.0218 21.4893 84.6551 19.084C86.6498 18.5267 88.4171 18.248 89.9571 18.248C92.2451 18.248 93.9831 18.8493 95.1711 20.052C96.3738 21.24 96.9751 23.0513 96.9751 25.486C96.9751 27.9207 96.2931 29.974 94.9291 31.646C93.5798 33.3033 91.7025 34.132 89.2971 34.132C87.6545 34.132 86.0631 33.758 84.5231 33.01ZM87.9331 20.47C87.8011 22.2593 87.7351 23.9973 87.7351 25.684C87.7351 27.356 87.8158 29.38 87.9771 31.756C88.5785 31.9613 89.2531 32.064 90.0011 32.064C90.7491 32.064 91.3945 31.8953 91.9371 31.558C92.4945 31.206 92.9198 30.7293 93.2131 30.128C93.7851 28.984 94.0711 27.5833 94.0711 25.926C94.0711 24.3273 93.7631 23.0073 93.1471 21.966C92.4725 20.7927 91.4238 20.206 90.0011 20.206C89.2238 20.206 88.5345 20.294 87.9331 20.47ZM103.229 18.556L107.519 18.38C107.944 18.38 108.311 18.49 108.619 18.71C108.927 18.93 109.081 19.26 109.081 19.7C109.081 20.1253 108.751 20.8367 108.091 21.834C107.445 22.8313 106.705 23.8433 105.869 24.87C105.047 25.8967 104.197 27.07 103.317 28.39C102.437 29.71 101.821 30.8613 101.469 31.844C102.437 31.9027 103.185 31.932 103.713 31.932C105.649 31.932 107.35 31.6093 108.817 30.964C108.993 31.36 109.081 31.8073 109.081 32.306C109.081 32.8047 108.905 33.2373 108.553 33.604C108.215 33.956 107.797 34.132 107.299 34.132L98.5866 34C98.3226 33.604 98.1906 33.1053 98.1906 32.504C98.1906 31.888 98.726 30.7953 99.7966 29.226C100.882 27.6567 102.099 25.9627 103.449 24.144C104.813 22.3253 105.678 21.0567 106.045 20.338C105.649 20.3967 105.025 20.5067 104.175 20.668C102.429 20.976 101.212 21.13 100.523 21.13C99.1293 21.13 98.4326 20.6607 98.4326 19.722C98.4326 19.0913 98.5206 18.556 98.6966 18.116C100.061 18.4093 101.571 18.556 103.229 18.556Z" fill="#8A4742"/>
<path d="M120.849 33.736C120.379 33.912 119.881 34 119.353 34C118.825 34 118.363 33.8313 117.967 33.494C117.585 33.1567 117.395 32.6947 117.395 32.108C117.395 31.5213 117.468 30.3993 117.615 28.742C117.761 27.07 117.835 25.7353 117.835 24.738C117.835 22.1713 117.681 20.14 117.373 18.644C117.842 18.468 118.341 18.38 118.869 18.38C119.397 18.38 119.851 18.5487 120.233 18.886C120.629 19.2233 120.827 19.6853 120.827 20.272C120.827 20.8587 120.753 21.988 120.607 23.66C120.46 25.3173 120.387 26.6447 120.387 27.642C120.387 30.2087 120.541 32.24 120.849 33.736ZM132.604 18.6C133.073 18.3653 133.564 18.248 134.078 18.248C134.606 18.248 135.031 18.4093 135.354 18.732C135.691 19.0547 135.86 19.4433 135.86 19.898C135.86 20.3527 135.794 21.3573 135.662 22.912C135.53 24.452 135.464 25.6767 135.464 26.586C135.464 29.5047 135.596 31.932 135.86 33.868C135.39 34.044 134.862 34.132 134.276 34.132C133.704 34.132 133.256 34.0367 132.934 33.846C131.995 33.3033 129.802 29.8713 126.356 23.55C126.297 24.122 126.268 25.464 126.268 27.576C126.268 29.6733 126.429 31.7267 126.752 33.736C126.297 33.912 125.806 34 125.278 34C124.75 34 124.317 33.8313 123.98 33.494C123.657 33.1567 123.496 32.7533 123.496 32.284C123.496 31.8147 123.562 30.832 123.694 29.336C123.84 27.84 123.914 26.7107 123.914 25.948C123.914 23.0293 123.774 20.6093 123.496 18.688C123.906 18.4827 124.508 18.38 125.3 18.38C126.092 18.38 126.649 18.6953 126.972 19.326C129.142 23.7407 131.218 27.4807 133.198 30.546C133.154 27.73 133.132 26.2413 133.132 26.08C133.132 23.3373 132.956 20.844 132.604 18.6ZM138.72 18.314L143.362 18.38C145.767 18.38 147.527 18.292 148.642 18.116C148.803 18.424 148.884 18.776 148.884 19.172C148.884 19.568 148.708 19.9273 148.356 20.25C148.004 20.558 147.579 20.712 147.08 20.712L144.55 20.426C144.55 20.5287 144.513 20.9833 144.44 21.79C144.235 23.77 144.132 25.7573 144.132 27.752C144.132 29.7467 144.286 31.7413 144.594 33.736C144.11 33.912 143.604 34 143.076 34C142.548 34 142.093 33.8533 141.712 33.56C141.331 33.252 141.14 32.7973 141.14 32.196C141.14 31.58 141.213 30.502 141.36 28.962C141.507 27.422 141.58 25.926 141.58 24.474C141.58 23.0073 141.507 21.6433 141.36 20.382C139.585 20.47 138.199 20.7193 137.202 21.13C137.026 20.7927 136.938 20.4187 136.938 20.008C136.938 19.5827 137.107 19.194 137.444 18.842C137.781 18.49 138.207 18.314 138.72 18.314ZM160.209 30.964C160.385 31.36 160.473 31.8073 160.473 32.306C160.473 32.8047 160.297 33.2373 159.945 33.604C159.607 33.956 159.189 34.132 158.691 34.132C157.136 34.132 154.701 34.044 151.387 33.868C151.123 33.8533 150.888 33.7727 150.683 33.626C150.477 33.4647 150.375 33.2667 150.375 33.032C150.375 32.2547 150.433 30.942 150.551 29.094C150.683 27.246 150.749 25.5227 150.749 23.924C150.749 22.3107 150.595 20.4627 150.287 18.38C151.372 18.468 152.831 18.512 154.665 18.512C156.498 18.512 158.251 18.38 159.923 18.116C160.099 18.4387 160.187 18.8273 160.187 19.282C160.187 19.722 160.011 20.118 159.659 20.47C159.321 20.8073 158.896 20.976 158.383 20.976C157.884 20.976 157.077 20.9027 155.963 20.756C154.863 20.6093 154.049 20.536 153.521 20.536C153.403 22.0173 153.337 23.4107 153.323 24.716C154.247 24.804 155.237 24.848 156.293 24.848C157.363 24.848 158.28 24.694 159.043 24.386C159.219 24.7087 159.307 25.0973 159.307 25.552C159.307 25.992 159.131 26.3953 158.779 26.762C158.441 27.114 158.031 27.29 157.547 27.29C157.077 27.29 156.373 27.202 155.435 27.026C154.496 26.8353 153.785 26.74 153.301 26.74C153.301 29.0573 153.352 30.7587 153.455 31.844C154.159 31.9027 154.709 31.932 155.105 31.932C157.041 31.932 158.742 31.6093 160.209 30.964ZM169.421 26.52C170.081 27.9133 170.917 29.1307 171.929 30.172C172.941 31.2133 173.946 31.888 174.943 32.196C174.943 32.812 174.782 33.2887 174.459 33.626C174.136 33.9633 173.674 34.132 173.073 34.132C172.296 34.132 171.408 33.6333 170.411 32.636C169.414 31.624 168.541 30.436 167.793 29.072C167.06 27.6933 166.627 26.4833 166.495 25.442C167.551 25.442 168.416 25.1633 169.091 24.606C169.78 24.034 170.125 23.2273 170.125 22.186C170.125 20.866 169.304 20.206 167.661 20.206C167.133 20.206 166.488 20.294 165.725 20.47C165.622 22.45 165.571 24.0487 165.571 25.266C165.571 29.1673 165.725 31.9907 166.033 33.736C165.564 33.912 165.065 34 164.537 34C164.009 34 163.547 33.8313 163.151 33.494C162.77 33.1567 162.579 32.7093 162.579 32.152C162.579 31.5947 162.652 30.6267 162.799 29.248C162.946 27.8547 163.019 26.74 163.019 25.904C163.019 23.3373 162.836 21.0567 162.469 19.062C164.449 18.5193 166.334 18.248 168.123 18.248C171.394 18.248 173.029 19.414 173.029 21.746C173.029 22.7727 172.677 23.7407 171.973 24.65C171.284 25.5447 170.433 26.168 169.421 26.52ZM179.952 33.736C179.483 33.912 178.984 34 178.456 34C177.928 34 177.466 33.8313 177.07 33.494C176.689 33.1567 176.498 32.6947 176.498 32.108C176.498 31.5213 176.572 30.3993 176.718 28.742C176.865 27.07 176.938 25.7353 176.938 24.738C176.938 22.1713 176.784 20.14 176.476 18.644C176.946 18.468 177.444 18.38 177.972 18.38C178.5 18.38 178.955 18.5487 179.336 18.886C179.732 19.2233 179.93 19.6853 179.93 20.272C179.93 20.8587 179.857 21.988 179.71 23.66C179.564 25.3173 179.49 26.6447 179.49 27.642C179.49 30.2087 179.644 32.24 179.952 33.736ZM192.939 25.992C192.939 24.2467 192.58 22.8387 191.861 21.768C191.157 20.6827 190.05 20.14 188.539 20.14C187.63 20.14 186.823 20.4333 186.119 21.02C185.723 21.636 185.408 22.4647 185.173 23.506C184.953 24.5473 184.843 25.5373 184.843 26.476C184.843 28.2067 185.195 29.5927 185.899 30.634C186.603 31.6753 187.718 32.196 189.243 32.196C190.079 32.196 190.791 31.8587 191.377 31.184C192.419 29.9667 192.939 28.236 192.939 25.992ZM188.495 34.264C186.354 34.264 184.726 33.56 183.611 32.152C182.497 30.7293 181.939 28.874 181.939 26.586C181.939 24.2833 182.629 22.296 184.007 20.624C185.386 18.952 187.139 18.116 189.265 18.116C191.407 18.116 193.035 18.8347 194.149 20.272C195.279 21.7093 195.843 23.5793 195.843 25.882C195.843 28.1847 195.154 30.1573 193.775 31.8C192.397 33.4427 190.637 34.264 188.495 34.264ZM204.806 26.52C205.466 27.9133 206.302 29.1307 207.314 30.172C208.326 31.2133 209.33 31.888 210.328 32.196C210.328 32.812 210.166 33.2887 209.844 33.626C209.521 33.9633 209.059 34.132 208.458 34.132C207.68 34.132 206.793 33.6333 205.796 32.636C204.798 31.624 203.926 30.436 203.178 29.072C202.444 27.6933 202.012 26.4833 201.88 25.442C202.936 25.442 203.801 25.1633 204.476 24.606C205.165 24.034 205.51 23.2273 205.51 22.186C205.51 20.866 204.688 20.206 203.046 20.206C202.518 20.206 201.872 20.294 201.11 20.47C201.007 22.45 200.956 24.0487 200.956 25.266C200.956 29.1673 201.11 31.9907 201.418 33.736C200.948 33.912 200.45 34 199.922 34C199.394 34 198.932 33.8313 198.536 33.494C198.154 33.1567 197.964 32.7093 197.964 32.152C197.964 31.5947 198.037 30.6267 198.184 29.248C198.33 27.8547 198.404 26.74 198.404 25.904C198.404 23.3373 198.22 21.0567 197.854 19.062C199.834 18.5193 201.718 18.248 203.508 18.248C206.778 18.248 208.414 19.414 208.414 21.746C208.414 22.7727 208.062 23.7407 207.358 24.65C206.668 25.5447 205.818 26.168 204.806 26.52ZM218.07 33.01C218.525 30.8247 218.752 28.5587 218.752 26.212C218.752 23.8653 218.569 21.4893 218.202 19.084C220.197 18.5267 221.964 18.248 223.504 18.248C225.792 18.248 227.53 18.8493 228.718 20.052C229.921 21.24 230.522 23.0513 230.522 25.486C230.522 27.9207 229.84 29.974 228.476 31.646C227.127 33.3033 225.249 34.132 222.844 34.132C221.201 34.132 219.61 33.758 218.07 33.01ZM221.48 20.47C221.348 22.2593 221.282 23.9973 221.282 25.684C221.282 27.356 221.363 29.38 221.524 31.756C222.125 31.9613 222.8 32.064 223.548 32.064C224.296 32.064 224.941 31.8953 225.484 31.558C226.041 31.206 226.467 30.7293 226.76 30.128C227.332 28.984 227.618 27.5833 227.618 25.926C227.618 24.3273 227.31 23.0073 226.694 21.966C226.019 20.7927 224.971 20.206 223.548 20.206C222.771 20.206 222.081 20.294 221.48 20.47ZM242.43 30.964C242.606 31.36 242.694 31.8073 242.694 32.306C242.694 32.8047 242.518 33.2373 242.166 33.604C241.828 33.956 241.41 34.132 240.912 34.132C239.357 34.132 236.922 34.044 233.608 33.868C233.344 33.8533 233.109 33.7727 232.904 33.626C232.698 33.4647 232.596 33.2667 232.596 33.032C232.596 32.2547 232.654 30.942 232.772 29.094C232.904 27.246 232.97 25.5227 232.97 23.924C232.97 22.3107 232.816 20.4627 232.508 18.38C233.593 18.468 235.052 18.512 236.886 18.512C238.719 18.512 240.472 18.38 242.144 18.116C242.32 18.4387 242.408 18.8273 242.408 19.282C242.408 19.722 242.232 20.118 241.88 20.47C241.542 20.8073 241.117 20.976 240.604 20.976C240.105 20.976 239.298 20.9027 238.184 20.756C237.084 20.6093 236.27 20.536 235.742 20.536C235.624 22.0173 235.558 23.4107 235.544 24.716C236.468 24.804 237.458 24.848 238.514 24.848C239.584 24.848 240.501 24.694 241.264 24.386C241.44 24.7087 241.528 25.0973 241.528 25.552C241.528 25.992 241.352 26.3953 241 26.762C240.662 27.114 240.252 27.29 239.768 27.29C239.298 27.29 238.594 27.202 237.655 27.026C236.717 26.8353 236.006 26.74 235.522 26.74C235.522 29.0573 235.573 30.7587 235.676 31.844C236.38 31.9027 236.93 31.932 237.326 31.932C239.262 31.932 240.963 31.6093 242.43 30.964ZM251.62 23.132C251.678 22.8387 251.708 22.538 251.708 22.23C251.708 20.8073 251.011 20.096 249.618 20.096C248.987 20.096 248.452 20.228 248.012 20.492C247.601 20.976 247.396 21.5553 247.396 22.23C247.396 22.67 247.586 23.0513 247.968 23.374C248.349 23.682 248.818 23.924 249.376 24.1C249.948 24.276 250.564 24.496 251.224 24.76C251.884 25.024 252.492 25.31 253.05 25.618C253.622 25.9113 254.098 26.3587 254.48 26.96C254.861 27.5467 255.052 28.2433 255.052 29.05C255.052 30.59 254.458 31.844 253.27 32.812C252.096 33.78 250.681 34.264 249.024 34.264C247.689 34.264 246.552 33.934 245.614 33.274C244.69 32.5993 244.228 31.6607 244.228 30.458C244.228 29.842 244.411 29.3287 244.778 28.918C245.159 28.4927 245.606 28.28 246.12 28.28C246.648 28.28 247.036 28.346 247.286 28.478C247.168 28.918 247.11 29.314 247.11 29.666C247.11 30.458 247.33 31.0887 247.77 31.558C248.224 32.0127 248.848 32.24 249.64 32.24C250.432 32.24 251.07 32.0347 251.554 31.624C252.038 31.2133 252.28 30.6707 252.28 29.996C252.28 29.3067 252.008 28.742 251.466 28.302C250.938 27.862 250.292 27.51 249.53 27.246C248.767 26.982 248.004 26.7033 247.242 26.41C246.479 26.1167 245.826 25.684 245.284 25.112C244.756 24.5253 244.492 23.792 244.492 22.912C244.492 21.5333 245.086 20.3893 246.274 19.48C247.476 18.5707 248.833 18.116 250.344 18.116C251.458 18.116 252.419 18.3433 253.226 18.798C254.047 19.238 254.458 19.9127 254.458 20.822C254.458 21.482 254.245 22.0467 253.82 22.516C253.394 22.9707 252.859 23.198 252.214 23.198C252.038 23.198 251.84 23.176 251.62 23.132ZM260.497 33.736C260.028 33.912 259.529 34 259.001 34C258.473 34 258.011 33.8313 257.615 33.494C257.234 33.1567 257.043 32.6947 257.043 32.108C257.043 31.5213 257.117 30.3993 257.263 28.742C257.41 27.07 257.483 25.7353 257.483 24.738C257.483 22.1713 257.329 20.14 257.021 18.644C257.491 18.468 257.989 18.38 258.517 18.38C259.045 18.38 259.5 18.5487 259.881 18.886C260.277 19.2233 260.475 19.6853 260.475 20.272C260.475 20.8587 260.402 21.988 260.255 23.66C260.109 25.3173 260.035 26.6447 260.035 27.642C260.035 30.2087 260.189 32.24 260.497 33.736ZM271.02 26.696L273.374 26.52C274.254 26.52 274.694 26.9673 274.694 27.862C274.694 28.3753 274.628 29.1747 274.496 30.26C274.364 31.3453 274.298 32.2253 274.298 32.9C273.932 32.9587 273.11 33.1787 271.834 33.56C270.573 33.9413 269.517 34.132 268.666 34.132C266.584 34.132 265.007 33.4867 263.936 32.196C262.88 30.9053 262.352 29.1453 262.352 26.916C262.352 25.332 262.638 23.88 263.21 22.56C263.797 21.24 264.662 20.1693 265.806 19.348C266.95 18.5267 268.212 18.116 269.59 18.116C270.984 18.116 272.142 18.4387 273.066 19.084C274.005 19.7293 274.474 20.602 274.474 21.702C274.474 22.318 274.291 22.8387 273.924 23.264C273.572 23.6747 273.118 23.88 272.56 23.88C272.003 23.88 271.614 23.814 271.394 23.682C271.438 23.418 271.46 23.154 271.46 22.89C271.46 22.1127 271.24 21.482 270.8 20.998C270.36 20.4993 269.737 20.25 268.93 20.25C268.124 20.25 267.361 20.5213 266.642 21.064C266.217 21.6653 265.887 22.4867 265.652 23.528C265.418 24.5693 265.3 25.5813 265.3 26.564C265.3 28.148 265.608 29.4533 266.224 30.48C266.84 31.492 267.816 31.998 269.15 31.998C270.133 31.998 271.05 31.712 271.9 31.14C271.959 30.568 271.988 29.7467 271.988 28.676C271.402 28.852 270.947 28.94 270.624 28.94C269.818 28.94 269.414 28.5147 269.414 27.664C269.414 27.2973 269.488 26.9087 269.634 26.498C270.03 26.63 270.492 26.696 271.02 26.696ZM286.217 18.6C286.686 18.3653 287.178 18.248 287.691 18.248C288.219 18.248 288.644 18.4093 288.967 18.732C289.304 19.0547 289.473 19.4433 289.473 19.898C289.473 20.3527 289.407 21.3573 289.275 22.912C289.143 24.452 289.077 25.6767 289.077 26.586C289.077 29.5047 289.209 31.932 289.473 33.868C289.004 34.044 288.476 34.132 287.889 34.132C287.317 34.132 286.87 34.0367 286.547 33.846C285.608 33.3033 283.416 29.8713 279.969 23.55C279.91 24.122 279.881 25.464 279.881 27.576C279.881 29.6733 280.042 31.7267 280.365 33.736C279.91 33.912 279.419 34 278.891 34C278.363 34 277.93 33.8313 277.593 33.494C277.27 33.1567 277.109 32.7533 277.109 32.284C277.109 31.8147 277.175 30.832 277.307 29.336C277.454 27.84 277.527 26.7107 277.527 25.948C277.527 23.0293 277.388 20.6093 277.109 18.688C277.52 18.4827 278.121 18.38 278.913 18.38C279.705 18.38 280.262 18.6953 280.585 19.326C282.756 23.7407 284.831 27.4807 286.811 30.546C286.767 27.73 286.745 26.2413 286.745 26.08C286.745 23.3373 286.569 20.844 286.217 18.6Z" fill="black"/>
</g>
<path d="M4 10C126.654 2.65696 189.685 1.36892 307 10" stroke="black" stroke-width="2"/>
<path d="M4 47H307" stroke="black" stroke-width="2"/>
<line x1="307" y1="10" x2="307" y2="47" stroke="black" stroke-width="2"/>
<line x1="5" y1="9" x2="5" y2="47" stroke="black" stroke-width="2"/>
</g>
<defs>
<filter id="filter0_d" x="24.32" y="18.116" width="269.153" height="24.148" filterUnits="userSpaceOnUse" color-interpolation-filters="sRGB">
<feFlood flood-opacity="0" result="BackgroundImageFix"/>
<feColorMatrix in="SourceAlpha" type="matrix" values="0 0 0 0 0 0 0 0 0 0 0 0 0 0 0 0 0 0 127 0"/>
<feOffset dy="4"/>
<feGaussianBlur stdDeviation="2"/>
<feColorMatrix type="matrix" values="0 0 0 0 0 0 0 0 0 0 0 0 0 0 0 0 0 0 0.25 0"/>
<feBlend mode="normal" in2="BackgroundImageFix" result="effect1_dropShadow"/>
<feBlend mode="normal" in="SourceGraphic" in2="effect1_dropShadow" result="shape"/>
</filter>
<clipPath id="clip0">
<rect width="310" height="51" fill="white"/>
</clipPath>
</defs>
</svg>
